<?xml version="1.0" standalone="no"?>
<!DOCTYPE svg PUBLIC "-//W3C//DTD SVG 20010904//EN"
 "http://www.w3.org/TR/2001/REC-SVG-20010904/DTD/svg10.dtd">
<svg fill="#FF9E00" version="1.0" xmlns="http://www.w3.org/2000/svg"
 width="513.000000pt" height="515.000000pt" viewBox="0 0 513.000000 515.000000"
 preserveAspectRatio="xMidYMid meet">

<g transform="translate(0.000000,515.000000) scale(0.100000,-0.100000)"
fill="#000000" stroke="none">
<path d="M1827 4048 c-25 -20 -63 -104 -91 -201 -52 -179 -59 -465 -16 -625
l22 -81 -31 -88 c-36 -101 -61 -238 -61 -328 0 -135 54 -337 113 -425 13 -19
31 -47 41 -61 l17 -27 -49 -36 c-278 -204 -5 -474 542 -535 56 -7 84 -15 99
-30 71 -65 193 -66 263 0 15 14 45 23 96 30 176 22 322 60 435 115 81 39 179
123 200 171 19 46 16 107 -7 152 -18 37 -103 121 -121 121 -16 0 -9 22 26 79
140 227 165 547 61 800 l-26 64 19 62 c11 34 25 106 31 160 27 230 -44 603
-131 681 -25 23 -68 10 -86 -26 -6 -14 -34 -72 -62 -130 -50 -106 -123 -223
-184 -294 l-33 -39 -90 24 c-77 20 -112 23 -259 23 -146 0 -183 -3 -259 -23
l-88 -23 -29 28 c-66 63 -195 277 -239 397 -16 42 -29 61 -47 68 -31 12 -36
11 -56 -3z m1425 -278 c14 -138 0 -302 -37 -446 l-26 -100 35 -60 c84 -140
123 -306 113 -483 -11 -211 -60 -325 -202 -467 -78 -78 -106 -99 -186 -137
-148 -72 -195 -81 -404 -82 -159 0 -190 3 -260 23 -270 78 -445 250 -515 506
-31 111 -31 287 -2 408 23 92 61 185 105 254 l25 41 -23 80 c-36 124 -48 245
-42 405 6 139 12 188 26 188 4 0 24 -35 45 -77 47 -95 107 -188 170 -266 l48
-59 -25 -26 c-33 -36 -61 -81 -54 -88 3 -3 23 6 46 20 53 34 170 80 246 97 39
9 117 13 220 13 143 -1 169 -4 250 -28 49 -15 122 -44 162 -65 83 -44 92 -35
34 31 l-40 45 41 49 c59 71 148 209 188 292 25 53 36 68 42 58 5 -8 14 -65 20
-126z m-644 -1916 c25 -17 52 -64 52 -89 0 -65 -71 -123 -135 -111 -34 7 -79
48 -90 84 -9 32 12 88 42 112 31 24 99 27 131 4z"/>
<path d="M2861 2914 c-53 -37 -66 -139 -28 -214 40 -80 104 -89 154 -24 25 33
28 45 28 116 0 77 -1 80 -33 109 -37 33 -84 38 -121 13z"/>
<path d="M2107 2818 c-45 -12 -97 -58 -97 -87 0 -30 27 -37 53 -14 48 44 89
52 212 41 25 -3 31 1 33 20 6 44 -104 66 -201 40z"/>
<path d="M2470 2507 c-39 -20 -39 -66 1 -111 l31 -36 -36 -35 c-20 -19 -53
-39 -73 -44 -75 -21 -163 26 -182 95 -5 19 -15 30 -29 32 -29 4 -37 -18 -22
-62 22 -66 106 -126 179 -126 38 0 41 -2 72 -61 18 -33 46 -72 63 -86 26 -21
37 -24 79 -20 59 5 96 37 129 113 21 49 26 54 56 54 44 0 102 31 139 74 34 37
51 92 35 108 -17 17 -45 4 -53 -26 -18 -68 -108 -116 -178 -96 -41 12 -101 56
-101 75 0 8 9 19 21 25 29 16 52 75 39 99 -19 37 -119 54 -170 28z"/>
</g>
</svg>
